<mxfile host="app.diagrams.net" modified="2022-05-17T11:52:07.831Z" agent="5.0 (Windows NT 10.0; Win64; x64) AppleWebKit/537.36 (KHTML, like Gecko) Chrome/101.0.4951.54 Safari/537.36" etag="P4RpSLamsNwFKMP263go" version="17.4.0" type="github">
  <diagram id="C5RBs43oDa-KdzZeNtuy" name="Page-1">
    <mxGraphModel dx="1662" dy="1923" grid="1" gridSize="10" guides="1" tooltips="1" connect="1" arrows="1" fold="1" page="1" pageScale="1" pageWidth="827" pageHeight="1169" math="0" shadow="0">
      <root>
        <mxCell id="WIyWlLk6GJQsqaUBKTNV-0" />
        <mxCell id="WIyWlLk6GJQsqaUBKTNV-1" parent="WIyWlLk6GJQsqaUBKTNV-0" />
        <mxCell id="6K6cia2MWcjQo8LK-Wyb-7" value="" style="edgeStyle=orthogonalEdgeStyle;rounded=0;orthogonalLoop=1;jettySize=auto;html=1;" edge="1" parent="WIyWlLk6GJQsqaUBKTNV-1" source="6K6cia2MWcjQo8LK-Wyb-0" target="6K6cia2MWcjQo8LK-Wyb-1">
          <mxGeometry relative="1" as="geometry" />
        </mxCell>
        <mxCell id="6K6cia2MWcjQo8LK-Wyb-0" value="Update stock:&lt;br&gt;stock = stock - 1" style="rounded=1;whiteSpace=wrap;html=1;absoluteArcSize=1;arcSize=14;strokeWidth=2;" vertex="1" parent="WIyWlLk6GJQsqaUBKTNV-1">
          <mxGeometry x="290" y="50" width="100" height="60" as="geometry" />
        </mxCell>
        <mxCell id="6K6cia2MWcjQo8LK-Wyb-11" value="Yes" style="edgeStyle=orthogonalEdgeStyle;rounded=0;orthogonalLoop=1;jettySize=auto;html=1;" edge="1" parent="WIyWlLk6GJQsqaUBKTNV-1" source="6K6cia2MWcjQo8LK-Wyb-1" target="6K6cia2MWcjQo8LK-Wyb-8">
          <mxGeometry relative="1" as="geometry" />
        </mxCell>
        <mxCell id="6K6cia2MWcjQo8LK-Wyb-20" value="No" style="edgeStyle=orthogonalEdgeStyle;rounded=0;orthogonalLoop=1;jettySize=auto;html=1;" edge="1" parent="WIyWlLk6GJQsqaUBKTNV-1" source="6K6cia2MWcjQo8LK-Wyb-1" target="6K6cia2MWcjQo8LK-Wyb-18">
          <mxGeometry relative="1" as="geometry" />
        </mxCell>
        <mxCell id="6K6cia2MWcjQo8LK-Wyb-1" value="Stock &lt;br&gt;depleted?" style="strokeWidth=2;html=1;shape=mxgraph.flowchart.decision;whiteSpace=wrap;" vertex="1" parent="WIyWlLk6GJQsqaUBKTNV-1">
          <mxGeometry x="430" y="30" width="100" height="100" as="geometry" />
        </mxCell>
        <mxCell id="6K6cia2MWcjQo8LK-Wyb-6" value="" style="edgeStyle=orthogonalEdgeStyle;rounded=0;orthogonalLoop=1;jettySize=auto;html=1;" edge="1" parent="WIyWlLk6GJQsqaUBKTNV-1" source="6K6cia2MWcjQo8LK-Wyb-3" target="6K6cia2MWcjQo8LK-Wyb-0">
          <mxGeometry relative="1" as="geometry" />
        </mxCell>
        <mxCell id="6K6cia2MWcjQo8LK-Wyb-3" value="Close door, update DOOR var to 2,&amp;nbsp;" style="rounded=1;whiteSpace=wrap;html=1;absoluteArcSize=1;arcSize=14;strokeWidth=2;" vertex="1" parent="WIyWlLk6GJQsqaUBKTNV-1">
          <mxGeometry x="150" y="50" width="100" height="60" as="geometry" />
        </mxCell>
        <mxCell id="6K6cia2MWcjQo8LK-Wyb-5" value="" style="edgeStyle=orthogonalEdgeStyle;rounded=0;orthogonalLoop=1;jettySize=auto;html=1;" edge="1" parent="WIyWlLk6GJQsqaUBKTNV-1" source="6K6cia2MWcjQo8LK-Wyb-4" target="6K6cia2MWcjQo8LK-Wyb-3">
          <mxGeometry relative="1" as="geometry" />
        </mxCell>
        <mxCell id="6K6cia2MWcjQo8LK-Wyb-4" value="Wait 2 seconds" style="strokeWidth=2;html=1;shape=mxgraph.flowchart.delay;whiteSpace=wrap;" vertex="1" parent="WIyWlLk6GJQsqaUBKTNV-1">
          <mxGeometry x="20" y="50" width="100" height="60" as="geometry" />
        </mxCell>
        <mxCell id="6K6cia2MWcjQo8LK-Wyb-13" value="" style="edgeStyle=orthogonalEdgeStyle;rounded=0;orthogonalLoop=1;jettySize=auto;html=1;" edge="1" parent="WIyWlLk6GJQsqaUBKTNV-1" source="6K6cia2MWcjQo8LK-Wyb-8" target="6K6cia2MWcjQo8LK-Wyb-12">
          <mxGeometry relative="1" as="geometry" />
        </mxCell>
        <mxCell id="6K6cia2MWcjQo8LK-Wyb-8" value="Ask user to &lt;br&gt;restock, and &lt;br&gt;enter new stock &lt;br&gt;OR quit" style="strokeWidth=2;html=1;shape=mxgraph.flowchart.display;whiteSpace=wrap;" vertex="1" parent="WIyWlLk6GJQsqaUBKTNV-1">
          <mxGeometry x="570" y="45" width="116.67" height="70" as="geometry" />
        </mxCell>
        <mxCell id="6K6cia2MWcjQo8LK-Wyb-15" value="Quit" style="edgeStyle=orthogonalEdgeStyle;rounded=0;orthogonalLoop=1;jettySize=auto;html=1;" edge="1" parent="WIyWlLk6GJQsqaUBKTNV-1" source="6K6cia2MWcjQo8LK-Wyb-12" target="6K6cia2MWcjQo8LK-Wyb-14">
          <mxGeometry relative="1" as="geometry" />
        </mxCell>
        <mxCell id="6K6cia2MWcjQo8LK-Wyb-21" value="Restock" style="edgeStyle=orthogonalEdgeStyle;rounded=0;orthogonalLoop=1;jettySize=auto;html=1;" edge="1" parent="WIyWlLk6GJQsqaUBKTNV-1" source="6K6cia2MWcjQo8LK-Wyb-12" target="6K6cia2MWcjQo8LK-Wyb-16">
          <mxGeometry relative="1" as="geometry" />
        </mxCell>
        <mxCell id="6K6cia2MWcjQo8LK-Wyb-12" value="User restocks &lt;br&gt;or quits?" style="strokeWidth=2;html=1;shape=mxgraph.flowchart.decision;whiteSpace=wrap;" vertex="1" parent="WIyWlLk6GJQsqaUBKTNV-1">
          <mxGeometry x="710" y="30" width="100" height="100" as="geometry" />
        </mxCell>
        <mxCell id="6K6cia2MWcjQo8LK-Wyb-14" value="Terminate safely, exit program." style="rounded=1;whiteSpace=wrap;html=1;absoluteArcSize=1;arcSize=14;strokeWidth=2;" vertex="1" parent="WIyWlLk6GJQsqaUBKTNV-1">
          <mxGeometry x="710" y="-110" width="100" height="100" as="geometry" />
        </mxCell>
        <mxCell id="6K6cia2MWcjQo8LK-Wyb-19" style="edgeStyle=orthogonalEdgeStyle;rounded=0;orthogonalLoop=1;jettySize=auto;html=1;entryX=1;entryY=0.5;entryDx=0;entryDy=0;entryPerimeter=0;" edge="1" parent="WIyWlLk6GJQsqaUBKTNV-1" source="6K6cia2MWcjQo8LK-Wyb-16" target="6K6cia2MWcjQo8LK-Wyb-18">
          <mxGeometry relative="1" as="geometry" />
        </mxCell>
        <mxCell id="6K6cia2MWcjQo8LK-Wyb-16" value="Save entered value as &quot;stock&quot; variable" style="rounded=1;whiteSpace=wrap;html=1;absoluteArcSize=1;arcSize=14;strokeWidth=2;" vertex="1" parent="WIyWlLk6GJQsqaUBKTNV-1">
          <mxGeometry x="710" y="170" width="100" height="70" as="geometry" />
        </mxCell>
        <mxCell id="6K6cia2MWcjQo8LK-Wyb-23" value="" style="edgeStyle=orthogonalEdgeStyle;rounded=0;orthogonalLoop=1;jettySize=auto;html=1;" edge="1" parent="WIyWlLk6GJQsqaUBKTNV-1" source="6K6cia2MWcjQo8LK-Wyb-18" target="6K6cia2MWcjQo8LK-Wyb-22">
          <mxGeometry relative="1" as="geometry" />
        </mxCell>
        <mxCell id="6K6cia2MWcjQo8LK-Wyb-18" value="Display updated stock on SSD" style="strokeWidth=2;html=1;shape=mxgraph.flowchart.display;whiteSpace=wrap;" vertex="1" parent="WIyWlLk6GJQsqaUBKTNV-1">
          <mxGeometry x="430" y="175" width="100" height="60" as="geometry" />
        </mxCell>
        <mxCell id="6K6cia2MWcjQo8LK-Wyb-22" value="Resume state machine loop.&lt;br&gt;(See Logic Flow 1.0.)" style="verticalLabelPosition=bottom;verticalAlign=top;html=1;shape=offPageConnector;rounded=0;size=0.5;" vertex="1" parent="WIyWlLk6GJQsqaUBKTNV-1">
          <mxGeometry x="280" y="175" width="60" height="60" as="geometry" />
        </mxCell>
      </root>
    </mxGraphModel>
  </diagram>
</mxfile>
